<mxfile host="Electron" modified="2025-02-20T12:45:34.157Z" agent="Mozilla/5.0 (Windows NT 10.0; Win64; x64) AppleWebKit/537.36 (KHTML, like Gecko) draw.io/24.2.5 Chrome/120.0.6099.109 Electron/28.1.0 Safari/537.36" etag="DNLl9SRaKa91jCJMZ2cU" version="24.2.5" type="device">
  <diagram id="R2lEEEUBdFMjLlhIrx00" name="Page-1">
    <mxGraphModel dx="873" dy="644" grid="0" gridSize="10" guides="1" tooltips="1" connect="1" arrows="1" fold="1" page="0" pageScale="1" pageWidth="850" pageHeight="1100" background="#000000" math="0" shadow="0" extFonts="Permanent Marker^https://fonts.googleapis.com/css?family=Permanent+Marker">
      <root>
        <mxCell id="0" />
        <mxCell id="1" parent="0" />
        <mxCell id="H6X9fauirzCCHCWv-xAs-10" value="" style="endArrow=none;html=1;rounded=0;exitX=1;exitY=0.5;exitDx=0;exitDy=0;entryX=0;entryY=0.5;entryDx=0;entryDy=0;" parent="1" edge="1">
          <mxGeometry relative="1" as="geometry">
            <mxPoint x="460" y="311.5" as="sourcePoint" />
            <mxPoint x="671" y="311.5" as="targetPoint" />
          </mxGeometry>
        </mxCell>
        <mxCell id="H6X9fauirzCCHCWv-xAs-11" value="" style="endArrow=none;html=1;rounded=0;exitX=0.021;exitY=0.224;exitDx=0;exitDy=0;entryX=0.5;entryY=0;entryDx=0;entryDy=0;exitPerimeter=0;" parent="1" source="H6X9fauirzCCHCWv-xAs-22" edge="1">
          <mxGeometry relative="1" as="geometry">
            <mxPoint x="749.5" y="334" as="sourcePoint" />
            <mxPoint x="751.5" y="516" as="targetPoint" />
          </mxGeometry>
        </mxCell>
        <mxCell id="H6X9fauirzCCHCWv-xAs-12" value="" style="endArrow=none;html=1;rounded=0;entryX=0.472;entryY=0.983;entryDx=0;entryDy=0;entryPerimeter=0;exitX=0.032;exitY=0.81;exitDx=0;exitDy=0;exitPerimeter=0;" parent="1" source="H6X9fauirzCCHCWv-xAs-18" edge="1">
          <mxGeometry relative="1" as="geometry">
            <mxPoint x="748.9206431535272" y="289" as="sourcePoint" />
            <mxPoint x="745.0320000000002" y="137.98000000000002" as="targetPoint" />
          </mxGeometry>
        </mxCell>
        <mxCell id="H6X9fauirzCCHCWv-xAs-13" value="" style="endArrow=none;html=1;rounded=0;exitX=0.364;exitY=0.947;exitDx=0;exitDy=0;entryX=0.468;entryY=0.026;entryDx=0;entryDy=0;entryPerimeter=0;exitPerimeter=0;" parent="1" source="XUKnamzVR_E4Ip0Ok9J3-17" edge="1">
          <mxGeometry relative="1" as="geometry">
            <mxPoint x="327" y="143" as="sourcePoint" />
            <mxPoint x="327.5319999999999" y="284.48199999999997" as="targetPoint" />
          </mxGeometry>
        </mxCell>
        <mxCell id="H6X9fauirzCCHCWv-xAs-14" value="" style="endArrow=none;html=1;rounded=0;entryX=0;entryY=0.5;entryDx=0;entryDy=0;exitX=0.61;exitY=1.092;exitDx=0;exitDy=0;exitPerimeter=0;" parent="1" source="XUKnamzVR_E4Ip0Ok9J3-46" target="XUKnamzVR_E4Ip0Ok9J3-42" edge="1">
          <mxGeometry relative="1" as="geometry">
            <mxPoint x="-310" y="449" as="sourcePoint" />
            <mxPoint x="-97" y="514" as="targetPoint" />
          </mxGeometry>
        </mxCell>
        <mxCell id="H6X9fauirzCCHCWv-xAs-15" value="" style="endArrow=none;html=1;rounded=0;exitX=1;exitY=0.5;exitDx=0;exitDy=0;" parent="1" edge="1">
          <mxGeometry relative="1" as="geometry">
            <mxPoint x="23" y="310" as="sourcePoint" />
            <mxPoint x="211" y="310.90240000000006" as="targetPoint" />
          </mxGeometry>
        </mxCell>
        <mxCell id="H6X9fauirzCCHCWv-xAs-16" value="" style="endArrow=none;html=1;rounded=0;exitX=0.5;exitY=1;exitDx=0;exitDy=0;" parent="1" edge="1">
          <mxGeometry relative="1" as="geometry">
            <mxPoint x="-37" y="340" as="sourcePoint" />
            <mxPoint x="-37" y="514" as="targetPoint" />
          </mxGeometry>
        </mxCell>
        <mxCell id="H6X9fauirzCCHCWv-xAs-17" value="&lt;font style=&quot;font-size: 18px;&quot;&gt;lucreaza_in&lt;/font&gt;" style="text;html=1;align=center;verticalAlign=middle;resizable=0;points=[];autosize=1;strokeColor=none;fillColor=none;" parent="1" vertex="1">
          <mxGeometry x="744" y="199" width="110" height="34" as="geometry" />
        </mxCell>
        <mxCell id="H6X9fauirzCCHCWv-xAs-18" value="&lt;span style=&quot;font-size: 14px;&quot;&gt;M(1)&lt;/span&gt;" style="text;html=1;align=center;verticalAlign=middle;resizable=0;points=[];autosize=1;strokeColor=none;fillColor=none;" parent="1" vertex="1">
          <mxGeometry x="746" y="256" width="47" height="29" as="geometry" />
        </mxCell>
        <mxCell id="H6X9fauirzCCHCWv-xAs-20" value="&lt;font style=&quot;font-size: 18px;&quot;&gt;au&lt;/font&gt;" style="text;html=1;align=center;verticalAlign=middle;resizable=0;points=[];autosize=1;strokeColor=none;fillColor=none;" parent="1" vertex="1">
          <mxGeometry x="750" y="412" width="38" height="34" as="geometry" />
        </mxCell>
        <mxCell id="H6X9fauirzCCHCWv-xAs-22" value="&lt;span style=&quot;font-size: 14px;&quot;&gt;M(1)&lt;/span&gt;" style="text;html=1;align=center;verticalAlign=middle;resizable=0;points=[];autosize=1;strokeColor=none;fillColor=none;" parent="1" vertex="1">
          <mxGeometry x="746" y="346" width="47" height="29" as="geometry" />
        </mxCell>
        <mxCell id="H6X9fauirzCCHCWv-xAs-23" value="&lt;font style=&quot;font-size: 14px;&quot;&gt;1&lt;/font&gt;" style="text;html=1;align=center;verticalAlign=middle;resizable=0;points=[];autosize=1;strokeColor=none;fillColor=none;" parent="1" vertex="1">
          <mxGeometry x="746" y="140" width="26" height="29" as="geometry" />
        </mxCell>
        <mxCell id="H6X9fauirzCCHCWv-xAs-24" value="&lt;span style=&quot;font-size: 14px;&quot;&gt;1&lt;/span&gt;" style="text;html=1;align=center;verticalAlign=middle;resizable=0;points=[];autosize=1;strokeColor=none;fillColor=none;" parent="1" vertex="1">
          <mxGeometry x="749" y="481" width="26" height="29" as="geometry" />
        </mxCell>
        <mxCell id="H6X9fauirzCCHCWv-xAs-25" value="&lt;font style=&quot;font-size: 18px;&quot;&gt;lucreaza_in&lt;/font&gt;" style="text;html=1;align=center;verticalAlign=middle;resizable=0;points=[];autosize=1;strokeColor=none;fillColor=none;" parent="1" vertex="1">
          <mxGeometry x="507" y="280" width="110" height="34" as="geometry" />
        </mxCell>
        <mxCell id="H6X9fauirzCCHCWv-xAs-26" value="&lt;span style=&quot;font-size: 14px;&quot;&gt;M(1)&lt;/span&gt;" style="text;html=1;align=center;verticalAlign=middle;resizable=0;points=[];autosize=1;strokeColor=none;fillColor=none;" parent="1" vertex="1">
          <mxGeometry x="632" y="285" width="47" height="29" as="geometry" />
        </mxCell>
        <mxCell id="H6X9fauirzCCHCWv-xAs-27" value="&lt;font style=&quot;font-size: 14px;&quot;&gt;1&lt;/font&gt;" style="text;html=1;align=center;verticalAlign=middle;resizable=0;points=[];autosize=1;strokeColor=none;fillColor=none;" parent="1" vertex="1">
          <mxGeometry x="455" y="285" width="26" height="29" as="geometry" />
        </mxCell>
        <mxCell id="H6X9fauirzCCHCWv-xAs-28" value="&lt;font style=&quot;font-size: 18px;&quot;&gt;se_afla_la&lt;/font&gt;" style="text;html=1;align=center;verticalAlign=middle;resizable=0;points=[];autosize=1;strokeColor=none;fillColor=none;" parent="1" vertex="1">
          <mxGeometry x="329" y="199" width="100" height="34" as="geometry" />
        </mxCell>
        <mxCell id="H6X9fauirzCCHCWv-xAs-29" value="&lt;font style=&quot;font-size: 14px;&quot;&gt;1&lt;/font&gt;" style="text;html=1;align=center;verticalAlign=middle;resizable=0;points=[];autosize=1;strokeColor=none;fillColor=none;" parent="1" vertex="1">
          <mxGeometry x="325" y="143" width="26" height="29" as="geometry" />
        </mxCell>
        <mxCell id="H6X9fauirzCCHCWv-xAs-30" value="&lt;font style=&quot;font-size: 14px;&quot;&gt;1(0)&lt;/font&gt;" style="text;html=1;align=center;verticalAlign=middle;resizable=0;points=[];autosize=1;strokeColor=none;fillColor=none;" parent="1" vertex="1">
          <mxGeometry x="321.5" y="256" width="43" height="29" as="geometry" />
        </mxCell>
        <mxCell id="H6X9fauirzCCHCWv-xAs-31" value="&lt;font style=&quot;font-size: 18px;&quot;&gt;difuzeaza&lt;/font&gt;" style="text;html=1;align=center;verticalAlign=middle;resizable=0;points=[];autosize=1;strokeColor=none;fillColor=none;" parent="1" vertex="1">
          <mxGeometry x="70" y="280" width="95" height="34" as="geometry" />
        </mxCell>
        <mxCell id="H6X9fauirzCCHCWv-xAs-32" value="&lt;span style=&quot;font-size: 14px;&quot;&gt;M(1)&lt;/span&gt;" style="text;html=1;align=center;verticalAlign=middle;resizable=0;points=[];autosize=1;strokeColor=none;fillColor=none;" parent="1" vertex="1">
          <mxGeometry x="168" y="283" width="47" height="29" as="geometry" />
        </mxCell>
        <mxCell id="H6X9fauirzCCHCWv-xAs-33" value="&lt;span style=&quot;font-size: 14px;&quot;&gt;M(1)&lt;/span&gt;" style="text;html=1;align=center;verticalAlign=middle;resizable=0;points=[];autosize=1;strokeColor=none;fillColor=none;" parent="1" vertex="1">
          <mxGeometry x="14" y="283" width="47" height="29" as="geometry" />
        </mxCell>
        <mxCell id="H6X9fauirzCCHCWv-xAs-34" value="&lt;font style=&quot;font-size: 18px;&quot;&gt;fac_rezervare&lt;/font&gt;" style="text;html=1;align=center;verticalAlign=middle;resizable=0;points=[];autosize=1;strokeColor=none;fillColor=none;" parent="1" vertex="1">
          <mxGeometry x="-38" y="416" width="128" height="34" as="geometry" />
        </mxCell>
        <mxCell id="H6X9fauirzCCHCWv-xAs-35" value="&lt;span style=&quot;font-size: 14px;&quot;&gt;M(1)&lt;/span&gt;" style="text;html=1;align=center;verticalAlign=middle;resizable=0;points=[];autosize=1;strokeColor=none;fillColor=none;" parent="1" vertex="1">
          <mxGeometry x="-41" y="340" width="47" height="29" as="geometry" />
        </mxCell>
        <mxCell id="H6X9fauirzCCHCWv-xAs-36" value="&lt;span style=&quot;font-size: 14px;&quot;&gt;M(1)&lt;/span&gt;" style="text;html=1;align=center;verticalAlign=middle;resizable=0;points=[];autosize=1;strokeColor=none;fillColor=none;" parent="1" vertex="1">
          <mxGeometry x="-41" y="485" width="47" height="29" as="geometry" />
        </mxCell>
        <mxCell id="H6X9fauirzCCHCWv-xAs-37" value="&lt;font style=&quot;font-size: 18px;&quot;&gt;scriu&lt;/font&gt;" style="text;html=1;align=center;verticalAlign=middle;resizable=0;points=[];autosize=1;strokeColor=none;fillColor=none;" parent="1" vertex="1">
          <mxGeometry x="-268" y="505" width="56" height="34" as="geometry" />
        </mxCell>
        <mxCell id="Bb9EC4sIeLCdpaYRixQb-3" value="" style="endArrow=none;html=1;rounded=0;exitX=1;exitY=0.5;exitDx=0;exitDy=0;entryX=0;entryY=0.5;entryDx=0;entryDy=0;" parent="1" edge="1">
          <mxGeometry relative="1" as="geometry">
            <mxPoint x="100.5" y="113" as="sourcePoint" />
            <mxPoint x="258" y="113" as="targetPoint" />
          </mxGeometry>
        </mxCell>
        <mxCell id="Bb9EC4sIeLCdpaYRixQb-4" value="&lt;font style=&quot;font-size: 18px;&quot;&gt;are&lt;/font&gt;" style="text;html=1;align=center;verticalAlign=middle;resizable=0;points=[];autosize=1;strokeColor=none;fillColor=none;" parent="1" vertex="1">
          <mxGeometry x="154" y="83" width="44" height="34" as="geometry" />
        </mxCell>
        <mxCell id="Bb9EC4sIeLCdpaYRixQb-7" value="&lt;span style=&quot;font-size: 14px;&quot;&gt;1&lt;/span&gt;" style="text;html=1;align=center;verticalAlign=middle;resizable=0;points=[];autosize=1;strokeColor=none;fillColor=none;" parent="1" vertex="1">
          <mxGeometry x="97" y="86" width="26" height="29" as="geometry" />
        </mxCell>
        <mxCell id="Bb9EC4sIeLCdpaYRixQb-8" value="&lt;span style=&quot;font-size: 14px;&quot;&gt;M(1)&lt;/span&gt;" style="text;html=1;align=center;verticalAlign=middle;resizable=0;points=[];autosize=1;strokeColor=none;fillColor=none;" parent="1" vertex="1">
          <mxGeometry x="218" y="88" width="47" height="29" as="geometry" />
        </mxCell>
        <mxCell id="XN4o5ghiYgklp3PUmWGQ-1" value="" style="endArrow=none;html=1;rounded=0;exitX=1.115;exitY=0.897;exitDx=0;exitDy=0;entryX=0.446;entryY=0.017;entryDx=0;entryDy=0;entryPerimeter=0;exitPerimeter=0;" parent="1" source="XN4o5ghiYgklp3PUmWGQ-5" edge="1">
          <mxGeometry relative="1" as="geometry">
            <mxPoint x="-97" y="340" as="sourcePoint" />
            <mxPoint x="-318.424" y="390.02" as="targetPoint" />
          </mxGeometry>
        </mxCell>
        <mxCell id="XN4o5ghiYgklp3PUmWGQ-2" value="&lt;font style=&quot;font-size: 18px;&quot;&gt;are&lt;/font&gt;" style="text;html=1;align=center;verticalAlign=middle;resizable=0;points=[];autosize=1;strokeColor=none;fillColor=none;" parent="1" vertex="1">
          <mxGeometry x="-231" y="331" width="44" height="34" as="geometry" />
        </mxCell>
        <mxCell id="XN4o5ghiYgklp3PUmWGQ-3" value="&lt;font style=&quot;font-size: 14px;&quot;&gt;1&lt;/font&gt;" style="text;html=1;align=center;verticalAlign=middle;resizable=0;points=[];autosize=1;strokeColor=none;fillColor=none;" parent="1" vertex="1">
          <mxGeometry x="-166" y="556" width="26" height="29" as="geometry" />
        </mxCell>
        <mxCell id="XN4o5ghiYgklp3PUmWGQ-4" value="&lt;font style=&quot;font-size: 14px;&quot;&gt;M(0)&lt;/font&gt;" style="text;html=1;align=center;verticalAlign=middle;resizable=0;points=[];autosize=1;strokeColor=none;fillColor=none;" parent="1" vertex="1">
          <mxGeometry x="-331" y="461" width="47" height="29" as="geometry" />
        </mxCell>
        <mxCell id="XN4o5ghiYgklp3PUmWGQ-5" value="&lt;font style=&quot;font-size: 14px;&quot;&gt;1&lt;/font&gt;" style="text;html=1;align=center;verticalAlign=middle;resizable=0;points=[];autosize=1;strokeColor=none;fillColor=none;" parent="1" vertex="1">
          <mxGeometry x="-130" y="302" width="26" height="29" as="geometry" />
        </mxCell>
        <mxCell id="XN4o5ghiYgklp3PUmWGQ-6" value="&lt;font style=&quot;font-size: 14px;&quot;&gt;M(0)&lt;/font&gt;" style="text;html=1;align=center;verticalAlign=middle;resizable=0;points=[];autosize=1;strokeColor=none;fillColor=none;" parent="1" vertex="1">
          <mxGeometry x="-338.5" y="355" width="47" height="29" as="geometry" />
        </mxCell>
        <mxCell id="XUKnamzVR_E4Ip0Ok9J3-1" value="&lt;font style=&quot;font-size: 18px;&quot;&gt;ORAS&lt;/font&gt;" style="shape=table;startSize=30;container=1;collapsible=1;childLayout=tableLayout;fixedRows=1;rowLines=0;fontStyle=1;align=center;resizeLast=1;html=1;" parent="1" vertex="1">
          <mxGeometry x="-79" y="70" width="180" height="69" as="geometry" />
        </mxCell>
        <mxCell id="XUKnamzVR_E4Ip0Ok9J3-2" value="" style="shape=tableRow;horizontal=0;startSize=0;swimlaneHead=0;swimlaneBody=0;fillColor=none;collapsible=0;dropTarget=0;points=[[0,0.5],[1,0.5]];portConstraint=eastwest;top=0;left=0;right=0;bottom=1;" parent="XUKnamzVR_E4Ip0Ok9J3-1" vertex="1">
          <mxGeometry y="30" width="180" height="38" as="geometry" />
        </mxCell>
        <mxCell id="XUKnamzVR_E4Ip0Ok9J3-3" value="PK" style="shape=partialRectangle;connectable=0;fillColor=none;top=0;left=0;bottom=0;right=0;fontStyle=1;overflow=hidden;whiteSpace=wrap;html=1;" parent="XUKnamzVR_E4Ip0Ok9J3-2" vertex="1">
          <mxGeometry width="30" height="38" as="geometry">
            <mxRectangle width="30" height="38" as="alternateBounds" />
          </mxGeometry>
        </mxCell>
        <mxCell id="XUKnamzVR_E4Ip0Ok9J3-4" value="&lt;font style=&quot;font-size: 14px;&quot;&gt;cod_oras&lt;/font&gt;" style="shape=partialRectangle;connectable=0;fillColor=none;top=0;left=0;bottom=0;right=0;align=left;spacingLeft=6;fontStyle=5;overflow=hidden;whiteSpace=wrap;html=1;" parent="XUKnamzVR_E4Ip0Ok9J3-2" vertex="1">
          <mxGeometry x="30" width="150" height="38" as="geometry">
            <mxRectangle width="150" height="38" as="alternateBounds" />
          </mxGeometry>
        </mxCell>
        <mxCell id="XUKnamzVR_E4Ip0Ok9J3-16" value="&lt;span style=&quot;font-size: 18px;&quot;&gt;ADRESA&lt;/span&gt;" style="shape=table;startSize=30;container=1;collapsible=1;childLayout=tableLayout;fixedRows=1;rowLines=0;fontStyle=1;align=center;resizeLast=1;html=1;" parent="1" vertex="1">
          <mxGeometry x="261" y="65.5" width="180" height="69" as="geometry" />
        </mxCell>
        <mxCell id="XUKnamzVR_E4Ip0Ok9J3-17" value="" style="shape=tableRow;horizontal=0;startSize=0;swimlaneHead=0;swimlaneBody=0;fillColor=none;collapsible=0;dropTarget=0;points=[[0,0.5],[1,0.5]];portConstraint=eastwest;top=0;left=0;right=0;bottom=1;" parent="XUKnamzVR_E4Ip0Ok9J3-16" vertex="1">
          <mxGeometry y="30" width="180" height="38" as="geometry" />
        </mxCell>
        <mxCell id="XUKnamzVR_E4Ip0Ok9J3-18" value="PK" style="shape=partialRectangle;connectable=0;fillColor=none;top=0;left=0;bottom=0;right=0;fontStyle=1;overflow=hidden;whiteSpace=wrap;html=1;" parent="XUKnamzVR_E4Ip0Ok9J3-17" vertex="1">
          <mxGeometry width="30" height="38" as="geometry">
            <mxRectangle width="30" height="38" as="alternateBounds" />
          </mxGeometry>
        </mxCell>
        <mxCell id="XUKnamzVR_E4Ip0Ok9J3-19" value="&lt;span style=&quot;font-size: 14px;&quot;&gt;cod_adresa&lt;/span&gt;" style="shape=partialRectangle;connectable=0;fillColor=none;top=0;left=0;bottom=0;right=0;align=left;spacingLeft=6;fontStyle=5;overflow=hidden;whiteSpace=wrap;html=1;" parent="XUKnamzVR_E4Ip0Ok9J3-17" vertex="1">
          <mxGeometry x="30" width="150" height="38" as="geometry">
            <mxRectangle width="150" height="38" as="alternateBounds" />
          </mxGeometry>
        </mxCell>
        <mxCell id="XUKnamzVR_E4Ip0Ok9J3-20" value="&lt;span style=&quot;font-size: 18px;&quot;&gt;CINEMATOGRAF&lt;/span&gt;" style="shape=table;startSize=30;container=1;collapsible=1;childLayout=tableLayout;fixedRows=1;rowLines=0;fontStyle=1;align=center;resizeLast=1;html=1;" parent="1" vertex="1">
          <mxGeometry x="210" y="285" width="248" height="68" as="geometry" />
        </mxCell>
        <mxCell id="XUKnamzVR_E4Ip0Ok9J3-21" value="" style="shape=tableRow;horizontal=0;startSize=0;swimlaneHead=0;swimlaneBody=0;fillColor=none;collapsible=0;dropTarget=0;points=[[0,0.5],[1,0.5]];portConstraint=eastwest;top=0;left=0;right=0;bottom=1;" parent="XUKnamzVR_E4Ip0Ok9J3-20" vertex="1">
          <mxGeometry y="30" width="248" height="38" as="geometry" />
        </mxCell>
        <mxCell id="XUKnamzVR_E4Ip0Ok9J3-22" value="PK" style="shape=partialRectangle;connectable=0;fillColor=none;top=0;left=0;bottom=0;right=0;fontStyle=1;overflow=hidden;whiteSpace=wrap;html=1;" parent="XUKnamzVR_E4Ip0Ok9J3-21" vertex="1">
          <mxGeometry width="30" height="38" as="geometry">
            <mxRectangle width="30" height="38" as="alternateBounds" />
          </mxGeometry>
        </mxCell>
        <mxCell id="XUKnamzVR_E4Ip0Ok9J3-23" value="&lt;span style=&quot;font-size: 14px;&quot;&gt;cod_cinematograf&lt;/span&gt;" style="shape=partialRectangle;connectable=0;fillColor=none;top=0;left=0;bottom=0;right=0;align=left;spacingLeft=6;fontStyle=5;overflow=hidden;whiteSpace=wrap;html=1;" parent="XUKnamzVR_E4Ip0Ok9J3-21" vertex="1">
          <mxGeometry x="30" width="218" height="38" as="geometry">
            <mxRectangle width="218" height="38" as="alternateBounds" />
          </mxGeometry>
        </mxCell>
        <mxCell id="XUKnamzVR_E4Ip0Ok9J3-24" value="&lt;span style=&quot;font-size: 18px;&quot;&gt;DEPARTAMENTE&lt;/span&gt;" style="shape=table;startSize=30;container=1;collapsible=1;childLayout=tableLayout;fixedRows=1;rowLines=0;fontStyle=1;align=center;resizeLast=1;html=1;" parent="1" vertex="1">
          <mxGeometry x="630" y="70" width="248" height="68" as="geometry" />
        </mxCell>
        <mxCell id="XUKnamzVR_E4Ip0Ok9J3-25" value="" style="shape=tableRow;horizontal=0;startSize=0;swimlaneHead=0;swimlaneBody=0;fillColor=none;collapsible=0;dropTarget=0;points=[[0,0.5],[1,0.5]];portConstraint=eastwest;top=0;left=0;right=0;bottom=1;" parent="XUKnamzVR_E4Ip0Ok9J3-24" vertex="1">
          <mxGeometry y="30" width="248" height="38" as="geometry" />
        </mxCell>
        <mxCell id="XUKnamzVR_E4Ip0Ok9J3-26" value="PK" style="shape=partialRectangle;connectable=0;fillColor=none;top=0;left=0;bottom=0;right=0;fontStyle=1;overflow=hidden;whiteSpace=wrap;html=1;" parent="XUKnamzVR_E4Ip0Ok9J3-25" vertex="1">
          <mxGeometry width="30" height="38" as="geometry">
            <mxRectangle width="30" height="38" as="alternateBounds" />
          </mxGeometry>
        </mxCell>
        <mxCell id="XUKnamzVR_E4Ip0Ok9J3-27" value="&lt;span style=&quot;font-size: 14px;&quot;&gt;cod_departament&lt;/span&gt;" style="shape=partialRectangle;connectable=0;fillColor=none;top=0;left=0;bottom=0;right=0;align=left;spacingLeft=6;fontStyle=5;overflow=hidden;whiteSpace=wrap;html=1;" parent="XUKnamzVR_E4Ip0Ok9J3-25" vertex="1">
          <mxGeometry x="30" width="218" height="38" as="geometry">
            <mxRectangle width="218" height="38" as="alternateBounds" />
          </mxGeometry>
        </mxCell>
        <mxCell id="XUKnamzVR_E4Ip0Ok9J3-28" value="&lt;span style=&quot;font-size: 18px;&quot;&gt;ANGAJATI&lt;/span&gt;" style="shape=table;startSize=30;container=1;collapsible=1;childLayout=tableLayout;fixedRows=1;rowLines=0;fontStyle=1;align=center;resizeLast=1;html=1;" parent="1" vertex="1">
          <mxGeometry x="674" y="280" width="180" height="69" as="geometry" />
        </mxCell>
        <mxCell id="XUKnamzVR_E4Ip0Ok9J3-29" value="" style="shape=tableRow;horizontal=0;startSize=0;swimlaneHead=0;swimlaneBody=0;fillColor=none;collapsible=0;dropTarget=0;points=[[0,0.5],[1,0.5]];portConstraint=eastwest;top=0;left=0;right=0;bottom=1;" parent="XUKnamzVR_E4Ip0Ok9J3-28" vertex="1">
          <mxGeometry y="30" width="180" height="38" as="geometry" />
        </mxCell>
        <mxCell id="XUKnamzVR_E4Ip0Ok9J3-30" value="PK" style="shape=partialRectangle;connectable=0;fillColor=none;top=0;left=0;bottom=0;right=0;fontStyle=1;overflow=hidden;whiteSpace=wrap;html=1;" parent="XUKnamzVR_E4Ip0Ok9J3-29" vertex="1">
          <mxGeometry width="30" height="38" as="geometry">
            <mxRectangle width="30" height="38" as="alternateBounds" />
          </mxGeometry>
        </mxCell>
        <mxCell id="XUKnamzVR_E4Ip0Ok9J3-31" value="&lt;span style=&quot;font-size: 14px;&quot;&gt;cod_angajat&lt;/span&gt;" style="shape=partialRectangle;connectable=0;fillColor=none;top=0;left=0;bottom=0;right=0;align=left;spacingLeft=6;fontStyle=5;overflow=hidden;whiteSpace=wrap;html=1;" parent="XUKnamzVR_E4Ip0Ok9J3-29" vertex="1">
          <mxGeometry x="30" width="150" height="38" as="geometry">
            <mxRectangle width="150" height="38" as="alternateBounds" />
          </mxGeometry>
        </mxCell>
        <mxCell id="XUKnamzVR_E4Ip0Ok9J3-33" value="&lt;span style=&quot;font-size: 18px;&quot;&gt;JOBURI&lt;/span&gt;" style="shape=table;startSize=30;container=1;collapsible=1;childLayout=tableLayout;fixedRows=1;rowLines=0;fontStyle=1;align=center;resizeLast=1;html=1;" parent="1" vertex="1">
          <mxGeometry x="669" y="516" width="180" height="69" as="geometry" />
        </mxCell>
        <mxCell id="XUKnamzVR_E4Ip0Ok9J3-34" value="" style="shape=tableRow;horizontal=0;startSize=0;swimlaneHead=0;swimlaneBody=0;fillColor=none;collapsible=0;dropTarget=0;points=[[0,0.5],[1,0.5]];portConstraint=eastwest;top=0;left=0;right=0;bottom=1;" parent="XUKnamzVR_E4Ip0Ok9J3-33" vertex="1">
          <mxGeometry y="30" width="180" height="38" as="geometry" />
        </mxCell>
        <mxCell id="XUKnamzVR_E4Ip0Ok9J3-35" value="PK" style="shape=partialRectangle;connectable=0;fillColor=none;top=0;left=0;bottom=0;right=0;fontStyle=1;overflow=hidden;whiteSpace=wrap;html=1;" parent="XUKnamzVR_E4Ip0Ok9J3-34" vertex="1">
          <mxGeometry width="30" height="38" as="geometry">
            <mxRectangle width="30" height="38" as="alternateBounds" />
          </mxGeometry>
        </mxCell>
        <mxCell id="XUKnamzVR_E4Ip0Ok9J3-36" value="&lt;span style=&quot;font-size: 14px;&quot;&gt;cod_job&lt;/span&gt;" style="shape=partialRectangle;connectable=0;fillColor=none;top=0;left=0;bottom=0;right=0;align=left;spacingLeft=6;fontStyle=5;overflow=hidden;whiteSpace=wrap;html=1;" parent="XUKnamzVR_E4Ip0Ok9J3-34" vertex="1">
          <mxGeometry x="30" width="150" height="38" as="geometry">
            <mxRectangle width="150" height="38" as="alternateBounds" />
          </mxGeometry>
        </mxCell>
        <mxCell id="XUKnamzVR_E4Ip0Ok9J3-37" value="&lt;span style=&quot;font-size: 18px;&quot;&gt;FILM&lt;/span&gt;" style="shape=table;startSize=30;container=1;collapsible=1;childLayout=tableLayout;fixedRows=1;rowLines=0;fontStyle=1;align=center;resizeLast=1;html=1;" parent="1" vertex="1">
          <mxGeometry x="-101" y="271" width="125" height="69" as="geometry" />
        </mxCell>
        <mxCell id="XUKnamzVR_E4Ip0Ok9J3-38" value="" style="shape=tableRow;horizontal=0;startSize=0;swimlaneHead=0;swimlaneBody=0;fillColor=none;collapsible=0;dropTarget=0;points=[[0,0.5],[1,0.5]];portConstraint=eastwest;top=0;left=0;right=0;bottom=1;" parent="XUKnamzVR_E4Ip0Ok9J3-37" vertex="1">
          <mxGeometry y="30" width="125" height="38" as="geometry" />
        </mxCell>
        <mxCell id="XUKnamzVR_E4Ip0Ok9J3-39" value="PK" style="shape=partialRectangle;connectable=0;fillColor=none;top=0;left=0;bottom=0;right=0;fontStyle=1;overflow=hidden;whiteSpace=wrap;html=1;" parent="XUKnamzVR_E4Ip0Ok9J3-38" vertex="1">
          <mxGeometry width="30" height="38" as="geometry">
            <mxRectangle width="30" height="38" as="alternateBounds" />
          </mxGeometry>
        </mxCell>
        <mxCell id="XUKnamzVR_E4Ip0Ok9J3-40" value="&lt;span style=&quot;font-size: 14px;&quot;&gt;cod_film&lt;/span&gt;" style="shape=partialRectangle;connectable=0;fillColor=none;top=0;left=0;bottom=0;right=0;align=left;spacingLeft=6;fontStyle=5;overflow=hidden;whiteSpace=wrap;html=1;" parent="XUKnamzVR_E4Ip0Ok9J3-38" vertex="1">
          <mxGeometry x="30" width="95" height="38" as="geometry">
            <mxRectangle width="95" height="38" as="alternateBounds" />
          </mxGeometry>
        </mxCell>
        <mxCell id="XUKnamzVR_E4Ip0Ok9J3-41" value="&lt;span style=&quot;font-size: 18px;&quot;&gt;CLIENTI&lt;/span&gt;" style="shape=table;startSize=30;container=1;collapsible=1;childLayout=tableLayout;fixedRows=1;rowLines=0;fontStyle=1;align=center;resizeLast=1;html=1;" parent="1" vertex="1">
          <mxGeometry x="-140" y="516" width="146" height="69" as="geometry" />
        </mxCell>
        <mxCell id="XUKnamzVR_E4Ip0Ok9J3-42" value="" style="shape=tableRow;horizontal=0;startSize=0;swimlaneHead=0;swimlaneBody=0;fillColor=none;collapsible=0;dropTarget=0;points=[[0,0.5],[1,0.5]];portConstraint=eastwest;top=0;left=0;right=0;bottom=1;" parent="XUKnamzVR_E4Ip0Ok9J3-41" vertex="1">
          <mxGeometry y="30" width="146" height="38" as="geometry" />
        </mxCell>
        <mxCell id="XUKnamzVR_E4Ip0Ok9J3-43" value="PK" style="shape=partialRectangle;connectable=0;fillColor=none;top=0;left=0;bottom=0;right=0;fontStyle=1;overflow=hidden;whiteSpace=wrap;html=1;" parent="XUKnamzVR_E4Ip0Ok9J3-42" vertex="1">
          <mxGeometry width="30" height="38" as="geometry">
            <mxRectangle width="30" height="38" as="alternateBounds" />
          </mxGeometry>
        </mxCell>
        <mxCell id="XUKnamzVR_E4Ip0Ok9J3-44" value="&lt;span style=&quot;font-size: 14px;&quot;&gt;cod_client&lt;/span&gt;" style="shape=partialRectangle;connectable=0;fillColor=none;top=0;left=0;bottom=0;right=0;align=left;spacingLeft=6;fontStyle=5;overflow=hidden;whiteSpace=wrap;html=1;" parent="XUKnamzVR_E4Ip0Ok9J3-42" vertex="1">
          <mxGeometry x="30" width="116" height="38" as="geometry">
            <mxRectangle width="116" height="38" as="alternateBounds" />
          </mxGeometry>
        </mxCell>
        <mxCell id="XUKnamzVR_E4Ip0Ok9J3-45" value="&lt;span style=&quot;font-size: 18px;&quot;&gt;RECENZIE&lt;/span&gt;" style="shape=table;startSize=30;container=1;collapsible=1;childLayout=tableLayout;fixedRows=1;rowLines=0;fontStyle=1;align=center;resizeLast=1;html=1;" parent="1" vertex="1">
          <mxGeometry x="-392.5" y="392" width="155" height="69" as="geometry" />
        </mxCell>
        <mxCell id="XUKnamzVR_E4Ip0Ok9J3-46" value="" style="shape=tableRow;horizontal=0;startSize=0;swimlaneHead=0;swimlaneBody=0;fillColor=none;collapsible=0;dropTarget=0;points=[[0,0.5],[1,0.5]];portConstraint=eastwest;top=0;left=0;right=0;bottom=1;" parent="XUKnamzVR_E4Ip0Ok9J3-45" vertex="1">
          <mxGeometry y="30" width="155" height="38" as="geometry" />
        </mxCell>
        <mxCell id="XUKnamzVR_E4Ip0Ok9J3-47" value="PK" style="shape=partialRectangle;connectable=0;fillColor=none;top=0;left=0;bottom=0;right=0;fontStyle=1;overflow=hidden;whiteSpace=wrap;html=1;" parent="XUKnamzVR_E4Ip0Ok9J3-46" vertex="1">
          <mxGeometry width="30" height="38" as="geometry">
            <mxRectangle width="30" height="38" as="alternateBounds" />
          </mxGeometry>
        </mxCell>
        <mxCell id="XUKnamzVR_E4Ip0Ok9J3-48" value="&lt;span style=&quot;font-size: 14px;&quot;&gt;cod_recenzie&lt;/span&gt;" style="shape=partialRectangle;connectable=0;fillColor=none;top=0;left=0;bottom=0;right=0;align=left;spacingLeft=6;fontStyle=5;overflow=hidden;whiteSpace=wrap;html=1;" parent="XUKnamzVR_E4Ip0Ok9J3-46" vertex="1">
          <mxGeometry x="30" width="125" height="38" as="geometry">
            <mxRectangle width="125" height="38" as="alternateBounds" />
          </mxGeometry>
        </mxCell>
      </root>
    </mxGraphModel>
  </diagram>
</mxfile>
